<?xml version="1.0" encoding="utf-8"?>
<!-- Generator: Adobe Illustrator 16.0.0, SVG Export Plug-In . SVG Version: 6.00 Build 0)  -->
<!DOCTYPE svg PUBLIC "-//W3C//DTD SVG 1.1//EN" "http://www.w3.org/Graphics/SVG/1.1/DTD/svg11.dtd">
<svg version="1.1"
	 id="Layer_1" xmlns:dc="http://purl.org/dc/elements/1.1/" xmlns:cc="http://creativecommons.org/ns#" xmlns:rdf="http://www.w3.org/1999/02/22-rdf-syntax-ns#" xmlns:svg="http://www.w3.org/2000/svg" xmlns:sodipodi="http://sodipodi.sourceforge.net/DTD/sodipodi-0.dtd" xmlns:inkscape="http://www.inkscape.org/namespaces/inkscape"
	 xmlns="http://www.w3.org/2000/svg" xmlns:xlink="http://www.w3.org/1999/xlink" x="0px" y="0px" width="65.667px"
	 height="68.833px" viewBox="0 0 65.667 68.833" enable-background="new 0 0 65.667 68.833" xml:space="preserve">
<g transform="translate(0,-952.36218)">
	<path fill="#4594eb" d="M33,953.409c-0.301,0-0.534,0.033-0.818,0.091c-1.136,0.211-2.1,0.807-2.728,1.727
		c-0.015,0.021,0.015,0.069,0,0.091c-0.139,0.212-0.354,0.395-0.455,0.637c-0.012,0.023,0.009,0.067,0,0.091
		c-0.095,0.242-0.22,0.458-0.272,0.727c-0.07,0.31-0.091,0.668-0.091,1c0,0.291,0.098,0.873,0.272,1.455
		c-3.96,0.582-7.137,2.036-9.455,4.364c-0.615,0.603-1.089,1.196-1.545,1.909c-0.913,1.382-1.521,3-1.818,4.818
		c-0.012,0.06,0.009,0.122,0,0.182c-0.13,0.857-0.272,1.683-0.272,2.636c-0.001,0.095,0,0.178,0,0.273
		c-0.009,1.576-0.026,3.121-0.182,4.636c-0.006,0.06,0.006,0.122,0,0.182c-0.164,1.542-0.417,3.059-0.728,4.546
		c-0.012,0.058,0.012,0.123,0,0.182c-0.643,3.029-1.688,5.964-2.909,8.818c-0.311,0.764-0.562,1.553-0.909,2.273
		c-0.181,0.37-0.354,0.729-0.545,1.091c-0.176,0.337-0.36,0.672-0.545,1c-0.015,0.023,0.015,0.067,0,0.091
		c-0.757,1.334-1.646,2.53-2.545,3.727c-0.015,0.021,0.015,0.07,0,0.091c-1.821,2.415-4.037,4.524-6.455,6.546
		c0,0.363,0.031,0.695,0.091,1c0.006,0.03-0.006,0.061,0,0.091c0.06,0.272,0.163,0.57,0.272,0.817c0.012,0.027-0.012,0.065,0,0.092
		c0.116,0.248,0.288,0.481,0.455,0.727c0.192,0.283,0.372,0.562,0.636,0.818c0.975,0.945,2.122,1.455,3.455,1.455h9.546h7.636h1.182
		c0,0.275,0.064,0.547,0.091,0.818c0.024,0.182,0.055,0.364,0.091,0.545c-0.001,0.061-0.001,0.121,0,0.182
		c0.017,0.088-0.021,0.186,0,0.273c0.097,0.371,0.218,0.734,0.363,1.09c0.048,0.13,0.127,0.236,0.182,0.364
		c0.608,1.486,1.615,2.776,2.909,3.728c0.087,0.064,0.183,0.119,0.272,0.182c0.374,0.273,0.769,0.516,1.182,0.727
		c0.087,0.041,0.185,0.053,0.272,0.091c0.471,0.194,0.958,0.346,1.455,0.454c0.571,0.137,1.121,0.26,1.728,0.273
		c3.749,0.058,7.115-2.284,8.364-5.818c0.199-0.5,0.352-1.018,0.455-1.546c0.065-0.451,0.096-0.907,0.09-1.363h1.182h17.183
		c1.335,0,2.479-0.509,3.454-1.454c0.975-0.946,1.455-2.072,1.455-3.364c-4.873-4.003-8.513-8.86-11-14.728
		c-2.487-5.891-3.818-12.123-3.818-18.637c0-4.103-1.176-7.407-3.637-9.818c-2.318-2.272-5.495-3.697-9.455-4.273
		c0.176-0.472,0.273-1.013,0.273-1.545c0-2.41-1.955-4.364-4.364-4.364L33,953.409z"/>
</g>
</svg>
